PathFileType	4	(X/Y/Z)	D:\TRACE\spotREDO_2-26-24\spot_Both_Motion_3_3-v60.trc
DataRate	CameraRate	NumFrames	NumMarkers	Units	OrigDataRate	OrigDataStartFrame	OrigNumFrames
100.00	100.00	      14	9	mm	100.00	1	      7000
Frame#	Time	front left toe			Front right toe			aft left toe			aft right toe			Arm			FL body			FR body			AL Body			AR Body			
		X1	Y1	Z1	X2	Y2	Z2	X3	Y3	Z3	X4	Y4	Z4	X5	Y5	Z5	X6	Y6	Z6	X7	Y7	Z7	X8	Y8	Z8	X9	Y9	Z9	

1	0.000	-247.11765	161.13786	-73.60875	215.93999	61.51807	-185.83107	-201.94882	-55.74707	481.11795	288.03818	-40.09308	415.48993	-46.54143	947.60114	-312.04703	-112.61344	616.15912	-198.27193	42.12628	622.59204	-219.05365	3.57054	459.57480	664.57385	149.21173	454.80112	645.75836	
2	0.010	-245.22311	160.52281	-70.37292	215.99368	61.31034	-185.87538	-201.99097	-55.77487	481.16211	287.98935	-40.04517	415.51340	-46.77456	947.99060	-312.50497	-113.73745	616.12109	-197.61014	40.98808	622.60266	-218.33183	1.50619	459.77243	665.05682	147.97752	454.94711	646.44849	
3	0.020	-241.39072	157.93330	-67.84171	215.61244	61.22907	-186.14745	-202.08015	-55.85696	481.15134	287.97269	-40.00157	415.49945	-46.94564	948.35992	-313.00598	-114.99188	616.08868	-197.10025	39.57394	622.61597	-217.79796	0.56097	459.77216	665.50751	147.49310	454.90393	646.86365	
4	0.030	-238.99313	156.19522	-65.16819	215.43719	61.76183	-185.98344	-202.11407	-55.85714	481.19070	287.88608	-39.96568	415.50098	-47.20390	948.71838	-313.48615	-116.39246	616.06915	-196.57433	38.34428	622.63849	-217.38512	-0.75637	459.80212	665.95532	146.32718	454.82275	647.35449	
5	0.040	-237.46526	152.89772	-63.45978	215.42142	61.70285	-185.93738	-202.09740	-55.88688	481.16879	287.84415	-39.88646	415.52716	-47.65226	949.12970	-314.12909	-117.74577	615.95990	-196.17293	37.14904	622.52954	-216.82228	-2.57896	459.83752	666.42096	145.39211	455.25146	647.82593	
6	0.050	-235.57013	146.76237	-61.83974	215.24315	61.74404	-185.95505	-202.19682	-55.99727	481.19504	287.77036	-39.75227	415.52750	-47.82552	949.48492	-314.41379	-119.05933	615.90454	-195.73779	35.68236	622.52020	-216.50514	-3.45897	459.89020	666.96857	144.11653	455.13437	648.14948	
7	0.060	-234.05138	138.22897	-60.68247	215.10289	61.75183	-186.01054	-202.38252	-56.04149	481.29395	287.70169	-39.74533	415.57773	-48.16684	949.96423	-314.72055	-120.30786	615.82367	-194.99110	34.26332	622.39764	-216.05531	-4.56104	460.00375	667.48206	142.54539	454.99078	648.39374	
8	0.070	-232.29492	127.90400	-58.61630	215.25647	61.94412	-185.97787	-202.49380	-56.11970	481.23679	287.61496	-39.66805	415.56485	-48.45617	950.40259	-315.01862	-121.68948	615.73999	-194.81120	32.80574	622.56787	-215.78484	-5.81059	459.92133	667.75610	141.22598	455.26947	648.88983	
9	0.080	-230.76414	116.53391	-57.01200	215.07292	61.90954	-186.08800	-202.65756	-56.26234	481.25970	287.54587	-39.51228	415.51962	-48.74717	950.86536	-315.50098	-123.29585	615.70862	-194.47626	31.39666	622.55170	-215.38750	-7.31032	459.94769	668.07324	139.54617	455.59018	649.28345	
10	0.090	-228.89537	104.81532	-54.73343	215.04228	61.97829	-186.07339	-203.01949	-56.44167	481.39966	287.41971	-39.40635	415.58313	-48.84921	951.29901	-315.97760	-124.67664	615.76184	-194.32805	29.89006	622.63556	-215.12743	-8.64814	459.95483	668.44824	138.22255	455.76559	649.72070	
11	0.100	-227.23969	94.31969	-52.73035	215.09468	62.01767	-186.04465	-203.04407	-56.56018	481.43771	287.29709	-39.32603	415.58844	-48.95650	951.57794	-316.26276	-126.35825	615.62610	-194.11351	28.54491	622.65167	-214.84692	-10.31184	459.85562	668.72876	136.48523	455.71002	649.92932	
12	0.110	-225.79541	83.85560	-50.53824	215.08275	62.01989	-185.98331	-203.10043	-56.53294	481.42450	287.22824	-39.19009	415.64987	-49.37606	952.13489	-316.87289	-127.77393	615.43701	-194.02394	26.83968	622.47003	-214.38422	-11.97744	459.97842	668.95721	134.48077	455.57645	649.84296	
13	0.120	-224.62720	73.35164	-49.32329	214.93910	62.01871	-186.00853	-203.19496	-56.56864	481.46445	287.08374	-39.15590	415.67804	-49.96510	952.64972	-317.34714	-129.50613	615.39581	-193.68387	25.21985	622.37366	-214.39532	-13.91637	459.92313	669.26538	132.85921	455.80115	650.50232	
14	0.130	-224.45041	63.31511	-48.75290	214.86774	62.11133	-186.02945	-203.23810	-56.62997	481.50983	287.01611	-39.14685	415.69022	-50.20269	952.95758	-317.88843	-131.21089	615.28699	-193.46562	23.25939	622.28534	-214.29398	-16.03301	459.89108	669.42084	130.98157	455.82104	650.70850	
